# xmcd
#
# Track frame offsets: 
#        182
#        13502
#        36662
#        51685
#        66370
#        87965
#        101660
#        115790
#        133877
#        150157
#        165230
#        178505
#        193457
#        213562
#        229930
#        244080
#
# Disc length: 3621 seconds
#
# Revision: 122
# Processed by: cddbd v1.5.2PL0 Copyright (c) Steve Scherf et al.
# Submitted via: ExactAudioCopyFreeDBPlugin 1.0
#
DISCID=e50e2310,e60e2310,ed0e2210,f10e2210,f30e2310
DTITLE=Eric Clapton - From the Cradle
DYEAR=1994
DGENRE=Blues
TTITLE0=Blues Before Sunrise
TTITLE1=Third Degree
TTITLE2=Reconsider Baby
TTITLE3=Hoochie Coochie Man
TTITLE4=Five Long Years
TTITLE5=I'm Tore Down
TTITLE6=How Long Blues
TTITLE7=Goin' Away Baby
TTITLE8=Blues Leave Me Alone
TTITLE9=Sinner's Prayer
TTITLE10=Motherless Child
TTITLE11=It Hurts Me Too
TTITLE12=Someday After a While
TTITLE13=Standin' Round Crying
TTITLE14=Driftin'
TTITLE15=Groaning the Blues
EXTD=
EXTT0=
EXTT1=
EXTT2=
EXTT3=
EXTT4=
EXTT5=
EXTT6=
EXTT7=
EXTT8=
EXTT9=
EXTT10=
EXTT11=
EXTT12=
EXTT13=
EXTT14=
EXTT15=
PLAYORDER=
